<?xml version="1.0" standalone="no"?>
<!DOCTYPE svg PUBLIC "-//W3C//DTD SVG 20010904//EN"
 "http://www.w3.org/TR/2001/REC-SVG-20010904/DTD/svg10.dtd">
<svg version="1.0" xmlns="http://www.w3.org/2000/svg"
 width="500.000000pt" height="500.000000pt" viewBox="0 0 500.000000 500.000000"
 preserveAspectRatio="xMidYMid meet">

<g transform="translate(0.000000,500.000000) scale(0.100000,-0.100000)"
fill="#000000" stroke="none">
<path d="M0 2500 l0 -2500 2500 0 2500 0 0 2500 0 2500 -2500 0 -2500 0 0
-2500z m2030 2097 c0 -13 -9 -50 -20 -81 -51 -149 -140 -240 -369 -378 -74
-45 -148 -94 -165 -110 -21 -20 -4 -12 47 22 43 28 128 76 189 107 636 316
1406 231 1958 -214 96 -78 250 -237 321 -333 394 -532 469 -1247 192 -1840
-52 -112 -71 -143 -83 -135 -5 3 15 56 45 118 170 356 217 739 139 1132 -43
215 -163 493 -292 675 -88 125 -310 347 -432 432 -220 155 -475 259 -760 310
-99 17 -460 17 -555 0 -283 -52 -538 -155 -752 -305 -40 -28 -71 -52 -70 -54
2 -2 28 2 58 8 30 6 171 14 314 17 l260 7 68 33 c38 19 71 31 75 27 12 -12
-97 -104 -157 -135 -106 -53 -156 -61 -426 -70 -361 -11 -371 -16 -523 -224
-25 -34 -50 -67 -55 -74 -6 -8 34 17 89 54 54 37 140 86 189 110 116 54 252
96 262 81 10 -16 -183 -196 -258 -240 -35 -20 -107 -54 -159 -74 -52 -20 -125
-51 -162 -70 -65 -32 -70 -37 -104 -106 -33 -65 -124 -321 -124 -349 0 -6 18
16 40 50 21 34 97 121 167 194 86 89 139 154 161 196 18 34 37 60 42 57 15 -9
21 -79 10 -135 -19 -101 -74 -195 -176 -300 l-93 -96 102 -11 c195 -21 289
-95 304 -238 11 -101 -45 -198 -141 -247 l-41 -21 55 -14 c74 -18 138 -59 175
-112 28 -40 30 -48 30 -136 0 -88 -2 -96 -30 -137 -37 -52 -109 -102 -178
-124 -33 -10 -104 -18 -194 -21 l-141 -5 34 -75 c92 -203 251 -417 424 -570
234 -208 535 -363 822 -423 309 -64 662 -46 942 49 83 29 114 32 101 10 -9
-13 -183 -65 -299 -89 -127 -27 -319 -38 -483 -29 -445 26 -866 218 -1178 540
-162 167 -271 322 -357 507 l-38 82 -140 0 -140 0 0 29 c0 28 2 29 67 37 l68
9 3 358 2 359 -34 57 c-19 31 -44 78 -55 104 -17 38 -25 47 -46 47 -21 0 -25
5 -25 30 0 23 5 30 19 30 16 0 18 5 10 43 -4 23 -15 124 -24 222 -9 99 -21
200 -26 224 -6 27 -6 48 -1 53 18 18 130 -141 175 -248 23 -53 31 -87 53 -219
12 -73 22 1 12 90 -24 204 20 506 109 753 43 120 53 100 53 -105 -1 -98 -5
-212 -10 -253 -4 -41 -7 -76 -5 -78 1 -2 16 15 33 38 27 37 29 46 25 103 -6
76 11 132 101 326 81 173 94 211 112 340 8 58 17 121 20 139 9 59 28 29 42
-64 7 -49 13 -150 14 -224 0 -113 -3 -144 -20 -193 l-21 -58 57 52 c48 44 60
62 78 118 26 82 45 120 87 168 44 51 199 164 349 256 136 83 196 137 223 198
20 44 35 51 35 16z m545 -2173 c104 -268 195 -492 202 -499 7 -7 35 -16 63
-20 47 -6 50 -9 50 -36 l0 -29 -205 0 -205 0 0 30 0 30 85 0 c47 0 85 4 85 9
0 5 -22 67 -49 137 l-48 129 -229 0 -228 0 -48 -125 c-26 -69 -47 -131 -48
-137 0 -10 23 -13 85 -13 l85 0 0 -30 0 -30 -190 0 -190 0 0 29 c0 28 2 30 55
36 30 4 59 12 63 18 4 6 91 225 193 486 185 472 186 475 220 487 19 7 41 13
49 13 11 1 67 -132 205 -485z m1320 448 c110 -41 171 -113 182 -216 11 -102
-45 -199 -141 -248 l-41 -21 55 -14 c74 -18 138 -59 175 -112 28 -40 30 -48
30 -136 0 -88 -2 -96 -30 -137 -17 -23 -52 -58 -79 -75 -91 -62 -120 -66 -448
-71 l-298 -4 0 30 c0 29 1 30 68 38 l67 9 3 457 2 457 -80 7 -80 7 0 29 0 30
278 -4 c254 -4 282 -6 337 -26z m-2225 -1007 c-24 -25 -47 -44 -50 -43 -4 2
-24 22 -45 46 l-38 43 44 45 43 44 45 -45 45 -45 -44 -45z m1430 0 l-44 -45
-45 45 -45 45 44 45 44 45 45 -45 45 -45 -44 -45z m1320 0 c-24 -25 -47 -44
-50 -43 -4 2 -24 22 -45 46 l-38 43 44 45 43 44 45 -45 45 -45 -44 -45z
m-2426 -251 c9 -3 16 -13 16 -22 0 -13 -3 -12 -14 4 -14 18 -17 18 -43 4 -51
-28 -38 -100 17 -100 23 0 30 5 30 19 0 11 -6 22 -12 24 -7 3 -3 6 9 6 18 1
20 -3 14 -26 -6 -22 -14 -29 -38 -31 -84 -8 -85 117 -1 127 3 1 13 -2 22 -5z
m161 -24 c0 -13 -7 -25 -15 -27 -13 -4 -13 -3 0 6 13 9 13 14 2 32 -11 18 -11
20 0 17 7 -3 13 -15 13 -28z m795 20 c24 -15 7 -18 -20 -3 -14 7 -18 13 -10
13 8 0 22 -4 30 -10z m380 -50 c12 -30 27 -58 33 -62 7 -4 -1 -7 -18 -7 -16 0
-25 3 -18 5 22 10 1 34 -29 34 -25 0 -29 -3 -25 -20 4 -15 0 -20 -13 -20 -17
0 -17 1 0 36 10 19 23 49 29 66 6 17 13 29 15 27 2 -2 14 -29 26 -59z m-2168
-2 l14 -53 14 43 c8 23 20 42 25 42 6 0 16 -19 24 -42 l14 -43 13 35 c7 19 13
30 13 24 1 -18 -20 -74 -29 -74 -4 0 -13 21 -21 47 -13 49 -14 49 -39 -21 -6
-17 -14 -25 -19 -20 -13 14 -41 114 -32 114 5 0 15 -24 23 -52z m132 37 c-4
-8 -8 -15 -10 -15 -2 0 -4 7 -4 15 0 8 4 15 10 15 5 0 7 -7 4 -15z m56 -11 c0
-23 3 -26 25 -22 20 4 25 1 24 -16 0 -11 -3 -15 -6 -8 -2 6 -13 12 -24 12 -13
0 -19 -7 -19 -24 0 -20 6 -25 33 -29 23 -3 18 -4 -18 -5 -31 -1 -45 2 -36 7 9
6 12 24 10 60 -2 28 -1 51 4 51 4 0 7 -12 7 -26z m112 -29 c-4 -52 -3 -55 20
-55 33 0 48 18 48 57 0 26 -5 36 -22 43 -17 6 -19 9 -6 9 26 1 50 -42 42 -73
-8 -33 -32 -46 -81 -45 -21 0 -32 3 -25 6 7 3 12 25 12 59 0 30 3 54 8 54 4 0
5 -25 4 -55z m138 0 c0 -48 3 -55 19 -55 52 0 67 74 21 97 -17 9 -20 13 -8 13
25 0 48 -28 48 -57 0 -39 -27 -63 -69 -63 l-36 0 3 60 c5 75 22 79 22 5z m143
-57 c7 -4 -1 -7 -18 -7 -16 0 -24 3 -17 6 7 3 13 27 14 61 l2 57 3 -55 c3 -30
10 -58 16 -62z m52 52 c0 -33 -4 -60 -10 -60 -6 0 -9 24 -7 60 5 78 17 78 17
0z m77 -1 c-2 -34 -7 -57 -11 -53 -9 11 -2 114 7 114 4 0 5 -27 4 -61z m268
-6 c17 -26 30 -30 30 -8 0 8 4 15 9 15 5 0 7 -9 4 -21 -3 -12 -1 -24 5 -28 6
-4 -11 -8 -39 -9 -56 -2 -70 13 -49 53 7 13 9 28 6 34 -4 6 -4 17 1 24 5 8 9
4 13 -13 3 -14 12 -35 20 -47z m176 20 c15 2 24 0 24 -8 0 -8 -9 -10 -25 -7
-22 4 -25 1 -25 -22 0 -22 4 -26 29 -26 16 0 32 6 34 13 3 7 6 5 6 -5 1 -15
-8 -18 -51 -17 -29 0 -47 3 -40 6 7 3 13 27 13 61 1 32 4 44 6 28 4 -24 8 -27
29 -23z m98 -4 c19 -51 19 -51 32 -28 16 29 18 20 4 -17 -7 -16 -14 -24 -20
-18 -14 14 -51 114 -42 114 5 0 16 -23 26 -51z m64 26 c-6 -14 -13 -24 -14
-22 -6 6 9 47 17 47 5 0 3 -11 -3 -25z m62 -1 c0 -23 3 -26 25 -22 20 4 25 1
24 -16 0 -11 -3 -15 -6 -8 -2 6 -13 12 -24 12 -14 0 -19 -7 -19 -25 0 -20 5
-25 24 -25 13 0 27 6 29 13 3 7 6 5 6 -5 1 -15 -7 -18 -41 -18 l-43 0 3 60 c4
58 22 87 22 34z m60 16 c0 -5 -2 -10 -4 -10 -3 0 -8 5 -11 10 -3 6 -1 10 4 10
6 0 11 -4 11 -10z m82 -36 l33 -47 6 49 c6 48 6 48 7 -16 l1 -65 -19 23 c-11
13 -29 36 -40 50 l-21 27 3 -47 c3 -43 1 -48 -17 -47 -11 0 -14 3 -7 6 7 3 12
25 12 59 0 30 2 54 4 54 3 0 20 -21 38 -46z m129 -5 c-2 -36 1 -54 10 -60 11
-7 9 -9 -6 -9 -18 0 -20 5 -17 60 2 33 7 60 10 60 4 0 5 -23 3 -51z m49 41 c0
-5 -2 -10 -4 -10 -3 0 -8 5 -11 10 -3 6 -1 10 4 10 6 0 11 -4 11 -10z m33 -8
c-3 -13 6 -23 32 -35 28 -13 36 -22 33 -40 -3 -25 -45 -35 -75 -18 -14 8 -9 9
18 4 42 -6 64 14 35 31 -44 26 -59 43 -53 59 9 23 16 22 10 -1z m159 -12 c-4
-27 -2 -30 22 -30 34 0 46 28 20 47 -19 14 -19 15 1 11 43 -7 24 -68 -21 -68
-17 0 -24 -6 -24 -19 0 -11 6 -22 13 -24 6 -3 3 -6 -8 -6 -18 -1 -20 4 -17 59
2 33 7 60 11 60 4 0 6 -13 3 -30z m118 -25 c0 -51 2 -55 24 -55 13 0 27 6 29
13 3 7 6 5 6 -5 1 -15 -7 -18 -41 -18 l-43 0 3 60 c5 75 22 79 22 5z m272 8
l33 -48 6 50 6 50 1 -62 c1 -35 -1 -63 -5 -63 -5 0 -24 24 -43 53 l-35 52 -3
-44 c-2 -28 1 -47 10 -52 9 -6 8 -9 -7 -9 -18 0 -20 5 -17 60 2 33 8 60 12 60
5 0 24 -21 42 -47z m140 1 l33 -47 6 49 c6 48 6 48 7 -16 l1 -65 -19 23 c-11
13 -29 36 -40 50 l-21 27 3 -47 c3 -43 1 -48 -17 -47 -11 0 -14 3 -7 6 7 3 12
25 12 59 0 30 2 54 4 54 3 0 20 -21 38 -46z m134 -1 c15 2 24 0 24 -8 0 -8 -9
-10 -25 -7 -22 4 -25 1 -25 -22 0 -22 4 -26 29 -26 16 0 32 6 34 13 3 7 6 5 6
-5 1 -15 -8 -18 -51 -17 -29 0 -47 3 -40 6 7 3 13 27 13 61 1 32 4 44 6 28 4
-24 8 -27 29 -23z m86 17 c-4 -31 7 -37 42 -24 20 8 21 41 1 46 -10 2 -9 3 2
3 24 0 29 -36 8 -51 -14 -10 -14 -15 -3 -33 7 -11 19 -22 28 -25 12 -3 11 -4
-2 -5 -10 0 -25 10 -34 24 -9 14 -23 25 -30 25 -17 0 -19 -37 -1 -43 6 -3 3
-6 -8 -6 -18 -1 -20 4 -17 59 2 33 7 60 11 60 4 0 6 -13 3 -30z m-1953 -55 c0
-5 -11 4 -24 20 -14 17 -25 35 -25 40 0 6 11 -3 25 -20 13 -16 24 -34 24 -40z
m2209 -13 c-2 -21 -9 -28 -29 -30 -31 -4 -53 20 -44 47 13 43 78 28 73 -17z
m-200 -218 c20 -36 -10 -71 -48 -59 -24 8 -32 32 -20 56 13 23 56 25 68 3z
m-234 -217 c16 -26 -27 -62 -55 -47 -19 10 -26 50 -12 64 13 12 56 2 67 -17z
m-274 -152 c27 -32 -23 -82 -55 -55 -15 13 -20 51 -8 63 12 12 50 7 63 -8z"/>
<path d="M1939 4464 c-13 -14 -71 -54 -129 -89 -238 -144 -374 -255 -419 -344
-34 -65 -25 -67 39 -8 32 30 110 86 172 123 141 84 246 162 290 217 68 84 104
162 47 101z"/>
<path d="M1192 4155 c-18 -100 -37 -152 -109 -309 -80 -172 -103 -237 -103
-294 l0 -45 76 104 c148 201 184 330 155 559 l-7 55 -12 -70z"/>
<path d="M2066 3953 c-3 -4 -131 -10 -284 -14 -297 -8 -358 -17 -431 -63 -46
-30 -64 -51 -33 -42 55 18 154 26 317 26 203 0 282 13 382 59 34 17 63 32 63
35 0 8 -5 7 -14 -1z"/>
<path d="M848 3700 c-52 -165 -81 -366 -76 -525 l3 -90 37 112 c52 158 70 278
66 448 l-3 140 -27 -85z"/>
<path d="M1445 3721 c-92 -33 -184 -79 -268 -134 -87 -57 -221 -166 -214 -174
3 -2 22 4 44 15 21 11 87 39 146 62 124 48 228 114 307 194 59 61 59 63 -15
37z"/>
<path d="M544 3345 c3 -22 13 -114 21 -205 9 -91 19 -181 23 -200 8 -35 8 -35
66 -38 l59 -3 -7 80 c-11 133 -61 266 -141 371 l-27 35 6 -40z"/>
<path d="M1143 3332 c-12 -21 -84 -104 -160 -184 -76 -80 -151 -168 -166 -197
l-28 -51 44 0 c43 0 47 3 149 108 82 84 112 123 141 182 30 62 60 180 46 180
-2 0 -14 -17 -26 -38z"/>
<path d="M626 2808 c7 -24 36 -83 53 -108 8 -11 11 5 11 58 l0 72 -36 0 c-32
0 -35 -2 -28 -22z"/>
<path d="M813 2809 c-10 -10 -13 -65 -13 -206 l0 -193 94 0 c177 0 259 32 304
120 49 97 17 203 -79 255 -50 27 -64 29 -174 33 -89 3 -123 1 -132 -9z"/>
<path d="M801 2169 c0 -114 5 -186 13 -209 l13 -35 149 0 c144 0 151 1 207 29
133 65 159 220 54 313 -54 47 -121 63 -289 70 l-148 6 1 -174z"/>
<path d="M2310 2745 c-51 -129 -179 -479 -176 -482 1 -2 89 -2 194 -1 l191 3
-90 235 c-116 307 -104 281 -119 245z"/>
<path d="M3550 2616 l0 -206 94 0 c177 0 259 32 304 120 49 97 17 203 -79 255
-51 27 -62 30 -186 33 l-133 4 0 -206z"/>
<path d="M3550 2130 l0 -212 163 3 c155 4 165 5 220 33 133 65 159 220 54 313
-54 47 -121 63 -289 70 l-148 6 0 -213z"/>
<path d="M3292 1573 c-16 -29 -15 -33 8 -33 22 0 23 4 11 35 -8 19 -8 19 -19
-2z"/>
<path d="M2105 1530 c-9 -15 4 -30 26 -30 22 0 24 11 7 28 -15 15 -25 15 -33
2z"/>
</g>
</svg>
